<svg xmlns="http://www.w3.org/2000/svg" viewBox="0 0 256 256">
  <!-- 3 documents fanning bottom-left → top-right, increasing size (open state) -->

  <!-- Back: Word doc (blue) — smallest, leftmost -->
  <g transform="translate(95,250) rotate(-14)">
    <rect x="-44" y="-205" width="88" height="120" rx="8" fill="#3B82F6" stroke="#000" stroke-width="3"/>
    <rect x="-30" y="-191" width="44" height="5" rx="2" fill="#fff" opacity="0.85"/>
    <rect x="-30" y="-180" width="58" height="5" rx="2" fill="#fff" opacity="0.7"/>
    <rect x="-30" y="-169" width="50" height="5" rx="2" fill="#fff" opacity="0.7"/>
    <rect x="-30" y="-158" width="58" height="5" rx="2" fill="#fff" opacity="0.55"/>
    <rect x="-30" y="-147" width="36" height="5" rx="2" fill="#fff" opacity="0.55"/>
    <rect x="-30" y="-130" width="58" height="5" rx="2" fill="#fff" opacity="0.4"/>
  </g>

  <!-- Middle: Image file (purple) — medium -->
  <g transform="translate(95,250) rotate(4)">
    <rect x="-48" y="-218" width="96" height="130" rx="8" fill="#A855F7" stroke="#000" stroke-width="3"/>
    <rect x="-36" y="-206" width="72" height="50" rx="5" fill="#fff" opacity="0.25"/>
    <circle cx="11" cy="-190" r="10" fill="#FBBF24"/>
    <polygon points="-36,-156 -8,-187 20,-156" fill="#fff" opacity="0.7"/>
    <polygon points="2,-156 24,-180 36,-156" fill="#fff" opacity="0.5"/>
  </g>

  <!-- Front: Spreadsheet (green) — largest, on top -->
  <g transform="translate(95,250) rotate(24)">
    <rect x="-58" y="-242" width="116" height="160" rx="8" fill="#22C55E" stroke="#000" stroke-width="3"/>
    <line x1="-20" y1="-230" x2="-20" y2="-94" stroke="#fff" stroke-width="6" opacity="1"/>
    <line x1="18"  y1="-230" x2="18"  y2="-94" stroke="#fff" stroke-width="6" opacity="1"/>
    <line x1="-46" y1="-203" x2="46"  y2="-203" stroke="#fff" stroke-width="6" opacity="1"/>
    <line x1="-46" y1="-176" x2="46"  y2="-176" stroke="#fff" stroke-width="6" opacity="1"/>
    <line x1="-46" y1="-149" x2="46"  y2="-149" stroke="#fff" stroke-width="6" opacity="1"/>
    <line x1="-46" y1="-122" x2="46"  y2="-122" stroke="#fff" stroke-width="6" opacity="1"/>
  </g>
</svg>
