<svg xmlns="http://www.w3.org/2000/svg" viewBox="0 0 256 256">
  <!-- 3 documents fanning bottom-left → top-right, increasing size -->

  <!-- Back: Word doc (blue) — smallest, leftmost -->
  <g transform="translate(95,250) rotate(-10)">
    <rect x="-44" y="-195" width="88" height="120" rx="8" fill="#3B82F6" stroke="#000" stroke-width="3"/>
    <rect x="-30" y="-181" width="44" height="5" rx="2" fill="#fff" opacity="0.85"/>
    <rect x="-30" y="-170" width="58" height="5" rx="2" fill="#fff" opacity="0.7"/>
    <rect x="-30" y="-159" width="50" height="5" rx="2" fill="#fff" opacity="0.7"/>
    <rect x="-30" y="-148" width="58" height="5" rx="2" fill="#fff" opacity="0.55"/>
    <rect x="-30" y="-137" width="36" height="5" rx="2" fill="#fff" opacity="0.55"/>
    <rect x="-30" y="-120" width="58" height="5" rx="2" fill="#fff" opacity="0.4"/>
  </g>

  <!-- Middle: Image file (purple) — medium -->
  <g transform="translate(95,250) rotate(4)">
    <rect x="-48" y="-206" width="96" height="130" rx="8" fill="#A855F7" stroke="#000" stroke-width="3"/>
    <rect x="-36" y="-194" width="72" height="50" rx="5" fill="#fff" opacity="0.25"/>
    <circle cx="11" cy="-178" r="10" fill="#FBBF24"/>
    <polygon points="-36,-144 -8,-175 20,-144" fill="#fff" opacity="0.7"/>
    <polygon points="2,-144 24,-168 36,-144" fill="#fff" opacity="0.5"/>
  </g>

  <!-- Front: Spreadsheet (green) — largest, on top -->
  <g transform="translate(95,250) rotate(20)">
    <rect x="-58" y="-232" width="116" height="160" rx="8" fill="#22C55E" stroke="#000" stroke-width="3"/>
    <line x1="-20" y1="-220" x2="-20" y2="-84" stroke="#fff" stroke-width="6" opacity="1"/>
    <line x1="18"  y1="-220" x2="18"  y2="-84" stroke="#fff" stroke-width="6" opacity="1"/>
    <line x1="-46" y1="-193" x2="46"  y2="-193" stroke="#fff" stroke-width="6" opacity="1"/>
    <line x1="-46" y1="-166" x2="46"  y2="-166" stroke="#fff" stroke-width="6" opacity="1"/>
    <line x1="-46" y1="-139" x2="46"  y2="-139" stroke="#fff" stroke-width="6" opacity="1"/>
    <line x1="-46" y1="-112" x2="46"  y2="-112" stroke="#fff" stroke-width="6" opacity="1"/>
  </g>
</svg>
